<?xml version="1.0" standalone="no"?><!DOCTYPE svg PUBLIC "-//W3C//DTD SVG 1.1//EN" "http://www.w3.org/Graphics/SVG/1.1/DTD/svg11.dtd"><svg t="1566549373150" class="icon" viewBox="0 0 1024 1024" version="1.1" xmlns="http://www.w3.org/2000/svg" p-id="1883" xmlns:xlink="http://www.w3.org/1999/xlink" width="200" height="200"><defs><style type="text/css"></style></defs><path d="M512 938.667C276.359 938.667 85.333 747.64 85.333 512 85.333 276.359 276.36 85.333 512 85.333c235.641 0 426.667 191.026 426.667 426.667 0 235.641-191.026 426.667-426.667 426.667z m0-64c200.295 0 362.667-162.372 362.667-362.667 0-200.295-162.372-362.667-362.667-362.667-200.295 0-362.667 162.372-362.667 362.667 0 200.295 162.372 362.667 362.667 362.667zM368.867 684.31c-13.59-11.298-15.446-31.474-4.147-45.064s31.475-15.446 45.064-4.147C438.313 658.82 474.1 672 512 672c37.891 0 73.67-13.174 102.196-36.884 13.592-11.297 33.767-9.437 45.064 4.154 11.297 13.591 9.437 33.767-4.154 45.064C615.19 717.51 564.975 736 512 736c-52.987 0-103.214-18.498-143.133-51.689z" fill="#e1e1e1" p-id="1884"></path></svg>